<svg width="24" height="24" viewBox="0 0 24 24" fill="none" xmlns="http://www.w3.org/2000/svg">
<path fill-rule="evenodd" clip-rule="evenodd" d="M23.0547 0.821891L20.2016 3.91249C18.1141 1.79221 15.211 0.479692 12 0.479692C5.63757 0.479692 0.479736 5.63749 0.479736 12C0.479736 18.3625 5.63757 23.5203 12 23.5203C18.3626 23.5203 23.5204 18.3625 23.5204 12V11.9688H20.6876V12C20.6876 16.7985 16.7985 20.6875 12 20.6875C7.20161 20.6875 3.31255 16.7985 3.31255 12C3.31255 7.20157 7.20161 3.31249 12 3.31249C14.4704 3.31249 16.6985 4.34221 18.2797 5.99689L15.2063 9.32969L23.1719 9.17969L23.0547 0.821891ZM11.3719 7.37501C11.3719 7.08593 11.6078 6.85001 11.8985 6.85001C12.1876 6.85001 12.4235 7.08593 12.4235 7.37501V12.2657L16.3469 15.0547C16.5813 15.2219 16.6376 15.5485 16.4704 15.7844C16.3016 16.0203 15.9735 16.0766 15.7391 15.9078L11.6266 12.9859C11.4735 12.8938 11.3719 12.725 11.3719 12.5344V7.37501Z" fill="#137E8A"/>
</svg>
