<?xml version="1.0" encoding="UTF-8" standalone="no"?>
<svg
   xmlns:dc="http://purl.org/dc/elements/1.1/"
   xmlns:cc="http://creativecommons.org/ns#"
   xmlns:rdf="http://www.w3.org/1999/02/22-rdf-syntax-ns#"
   xmlns:svg="http://www.w3.org/2000/svg"
   xmlns="http://www.w3.org/2000/svg"
   viewBox="0 0 946.66669 405.33334"
   height="405.33334"
   width="946.66669"
   xml:space="preserve"
   id="svg2"
   version="1.1"><metadata
     id="metadata8"><rdf:RDF><cc:Work
         rdf:about=""><dc:format>image/svg+xml</dc:format><dc:type
           rdf:resource="http://purl.org/dc/dcmitype/StillImage" /></cc:Work></rdf:RDF></metadata><defs
     id="defs6" /><g
     transform="matrix(1.3333333,0,0,-1.3333333,0,405.33333)"
     id="g10"><g
       transform="scale(0.1)"
       id="g12"><path
         id="path14"
         style="fill:#137e8a;fill-opacity:1;fill-rule:evenodd;stroke:none"
         d="m 5276.53,2115.17 c 0,-357.56 119.78,-560.5 490,-559.96 180.64,0.28 337.62,55.57 425.92,154.11 99.78,111.32 161.21,200.32 172.84,405.96 8.78,155.34 54.86,329.9 242.12,338.96 312.48,15.12 300.09,-561.32 120.94,-670.52 -143.87,-87.69 -288.83,26.58 -344.19,30.43 -25.8,-39.17 -80.28,-112.11 -76.92,-138.98 15.38,-122.69 788.57,-337.12 788.57,450 0,301.04 -163.26,527.55 -459.28,527.55 -201.79,0 -324.75,-58.24 -417.24,-200.51 -98.91,-152.14 -59.29,-290.04 -107.43,-462.12 -41.26,-147.5 -162.02,-229.2 -345.63,-226.84 -200.64,2.58 -249.7,152.38 -249.7,341.92 0,179.17 78.28,332.46 260,332.46 102.13,0 176.52,-47.85 235.32,-47.79 26.12,31.92 70.83,123.99 73.65,175.51 -278.95,181.82 -808.97,108.4 -808.97,-450.18" /><path
         id="path16"
         style="fill:#137e8a;fill-opacity:1;fill-rule:evenodd;stroke:none"
         d="m 1046.53,2475.17 v -850 c 0,-65.79 21.78,-49.28 180,-49.28 72.95,0 54.42,16.36 54.37,169.28 v 686.02 c 85.16,25.23 211.55,24.33 287.58,-13.92 150.68,-75.82 113.68,-366.66 113.68,-562.1 0,-56.62 0.53,-113.48 -0.16,-170.07 -1.48,-121.55 -33.29,-109.21 184.53,-109.21 45.36,0 50,4.08 50,49.28 v 540 c 0,103.99 -16.52,142.49 -31.03,230.72 83.57,41.39 169.63,73.41 285.71,34.18 93.48,-31.6 129.9,-103.03 143.22,-216.49 l 2.62,-528.57 c -1.09,-108.14 -20.79,-123.25 234.84,-105.19 11.2,130.55 4.04,436.98 3.92,585.35 -0.36,465.85 -381.23,548.3 -660.15,460.81 -36.61,-11.48 -124.59,-60.85 -133.38,-62.37 -20.7,-3.57 -139.99,89.11 -295.75,89.11 -91.27,0 -226.52,0 -311.76,-25.77 -83.98,-25.4 -108.24,-47.99 -108.24,-151.78" /><path
         id="path18"
         style="fill:#137e8a;fill-opacity:1;fill-rule:evenodd;stroke:none"
         d="m 2920.9,2411.19 c 101.04,48.7 334.53,78.91 421.29,-89.91 62.17,-120.99 56.1,-368.26 -22.96,-468.79 -45.1,-57.36 -96.35,-89.06 -193.11,-96.28 -238.44,-17.78 -206.89,7.07 -205.7,78.28 3.21,191.39 0.48,385.05 0.48,576.7 z m -234.37,573.98 v -1320 c 0,-87.28 32.55,-85.37 115.05,-94.97 204.5,-23.81 575.78,-43.26 694.39,125.03 94.67,134.34 130.56,220.27 130.56,429.94 0,140.06 -33.76,278.97 -103.23,366.75 -171.27,216.46 -371.06,161.54 -599.62,132.09 l -3.53,410.2 -183.62,5.33 c -52.51,0 -50,-6.12 -50,-54.37" /><path
         id="path20"
         style="fill:#1ea542;fill-opacity:1;fill-rule:evenodd;stroke:none"
         d="m 3252.66,51.3125 c -18.11,45.1836 56.8,233.6525 75.18,292.4295 15.02,48.059 30.02,98.731 45.25,144.828 12.11,36.621 43.39,134.422 94.71,80 19.81,-21.004 -62.49,-243.578 -76.42,-288.375 C 3350.8,149.703 3334.78,23.5664 3252.66,51.3125 Z m 745.71,934.3555 c -2.49,1.008 -5.28,1.937 -8.28,2.812 H 3615.03 L 3498.98,625.172 c -21.05,-7.246 5.7,-2.25 -15.42,0.484 l -127.01,7.02 c -220.92,-0.5 -312.1,31.019 -361.99,-115.645 -32.7,-96.172 -153.82,-425.2341 -130.3,-505.1599 8.93,-4.46094 22.87,-8.22657 40.76,-11.414069 h 786.61 L 3998.37,985.668" /><path
         id="path22"
         style="fill:#137e8a;fill-opacity:1;fill-rule:evenodd;stroke:none"
         d="m 4926.53,1775.09 c -144.71,-27.51 -409.39,-81.84 -412.28,120.07 -3,209.09 231.29,170.73 412.28,170.73 z m -479.29,840.08 c 0,-197.23 -9.85,-164.65 129.67,-164.29 59.04,0.15 118.76,-2.79 180.01,-4.33 118.88,-2.98 191.67,-67.8 165.62,-197.01 -262.07,0 -650.38,35.41 -650.38,-374.37 0,-363.11 491.17,-348.39 728.28,-293.69 116.29,26.82 165.37,40.71 165.37,123.69 v 600 c 0,378.42 -353.38,354.42 -619.53,360.36 -56.61,1.26 -99.04,15.13 -99.04,-50.36" /><path
         id="path24"
         style="fill:#137e8a;fill-opacity:1;fill-rule:evenodd;stroke:none"
         d="m 260.512,2219.54 c -15.832,124.89 104.019,245.97 225.797,248.41 140.125,2.8 245.429,-97.97 215.218,-248.41 z m 597.144,-577.68 c 3.086,57.51 -42.156,142.14 -71.129,172.33 -49.507,-0.94 -103.984,-33.21 -163.636,-45.41 -221.141,-45.23 -352.286,30.71 -376.364,277.11 142.383,0 397.504,-14.94 526.715,3.3 263.148,37.15 206.071,527.6 -139.172,603.41 -320.75,70.44 -566.2184,-86.57 -621.2106,-423.72 -23.8438,-146.18 2.9453,-353.99 62.4726,-465.18 108.18,-202.07 365.215,-236.15 587.594,-194.81 93.453,17.37 128.558,47.57 194.73,72.97" /><path
         id="path26"
         style="fill:#1ea542;fill-opacity:1;fill-rule:evenodd;stroke:none"
         d="m 2268.74,0.457031 c 7.31,3.257809 2.99,2.917969 12.34,20.644569 l 69.6,219.9414 c 30.48,89.98 220.78,676.625 232.76,747.437 h -43.84 c -6.97,-4.992 -9.62,-15.835 -16.92,-39.304 l -78,-252.36 c -24.01,-77.203 -71.2,-270.097 -108.15,-321.156 -33.4,34.352 -233.26,377.496 -285.9,463.633 -28.78,47.098 -62.04,110.102 -91.02,149.187 H 1637.27 L 1326.97,0.457031 h 47.78 c 5.77,5.781249 7.91,17.613269 14.96,41.624969 30.92,105.289 161.43,539.422 186.07,572.719 L 1944.92,0.457031 h 323.82" /><path
         id="path28"
         style="fill:#1ea542;fill-opacity:1;fill-rule:evenodd;stroke:none"
         d="m 4271.83,335.184 c 11.2,52.101 29.85,101.839 44.51,150.277 15.7,51.863 26.32,105.254 96.88,86.406 9.17,-48.359 -12.05,-86.015 -25.83,-127.367 -39.91,-119.707 -6.98,-109.316 -115.56,-109.316 z m 453.74,-49.055 c 141.33,407.801 105.4,346.535 -239.04,346.535 -453.67,0 -496.66,49.309 -566.52,-170.797 C 3805.61,101.426 3756.33,19.0508 3841.27,0.457031 h 792.83 c 7.34,4.167969 6.1,13.425769 11.47,43.757769 -472.53,6.1719 -490.99,-68.2734 -392.9,241.5432 l 472.9,0.371" /><path
         id="path30"
         style="fill:#137e8a;fill-opacity:1;fill-rule:evenodd;stroke:none"
         d="m 3806.53,1575.89 165.36,3.93 4.42,860.98 c 70.3,10.39 220.08,6.88 301.19,9.08 76.08,2.05 63.4,4.98 63.4,155.29 0,68.46 -11.39,60 -104.37,60 -543.24,0 -497.55,-52.96 -497.55,-330 l -0.01,-620.01 c -0.23,-90.75 -27.08,-139.27 67.56,-139.27" /><path
         id="path32"
         style="fill:#1ea542;fill-opacity:1;fill-rule:evenodd;stroke:none"
         d="m 5154.02,61.3125 c -20.64,70.7535 28.14,173.9965 50.5,245.9455 15.44,49.656 54.02,188.297 77.78,222.023 51.42,72.961 265.33,53.36 394.44,51.211 71.12,-1.179 94.33,-17.09 97.28,52.172 -212.5,0 -425,-0.094 -637.49,0 C 4883.02,632.773 4910.45,616.52 4817.61,314.246 4746.04,81.2148 4708.46,17.3242 4788.02,0.457031 h 779.08 c 12.3,8.031249 18.65,21.660169 22.22,44.113269 -112.38,0 -356.22,-20.1015 -435.3,16.7422" /><path
         id="path34"
         style="fill:#1ea542;fill-opacity:1;fill-rule:evenodd;stroke:none"
         d="M 2942.78,632.563 2558.67,631.859 2359.55,0.457031 h 387.94 L 2942.78,632.563" /><path
         id="path36"
         style="fill:#1ea542;fill-opacity:1;fill-rule:evenodd;stroke:none"
         d="m 2740.04,988.48 c -52.91,-12.503 -73.3,-36.492 -91.25,-75.8 -72.41,-158.571 -45.28,-197.965 77.39,-197.227 109.32,0.656 220.72,-24.254 270.5,79.59 10.31,21.508 39.98,113.676 38.03,139.238 -2.55,33.321 -17.6,47.907 -40.87,54.199 h -253.8" /></g></g></svg>