<svg width="31" height="32" viewBox="0 0 31 32" fill="none" xmlns="http://www.w3.org/2000/svg">
<path fill-rule="evenodd" clip-rule="evenodd" d="M0.218018 5.74755V26.2536C0.218018 27.596 0.727853 28.8865 1.5175 29.8532C2.03642 30.4895 2.73132 31.0716 3.47246 31.4247C4.03311 31.691 4.93222 32 5.73654 32H8.38188C9.01812 32 9.6882 31.331 9.6882 30.6948C9.6882 30.1172 9.66107 29.8848 9.20646 29.4449C8.40665 28.6676 7.01232 29.384 5.50409 28.838C4.14364 28.345 3.15772 26.9779 3.15772 25.4042V6.59691C3.15772 5.68994 3.43979 4.96915 3.94065 4.31036C4.21478 3.94937 4.62427 3.62222 5.01684 3.39435C5.45227 3.14279 6.03888 2.93971 6.55329 2.93971H21.5081C22.8426 2.93971 24.0293 3.87154 24.5775 4.96352C24.7343 5.27599 24.9329 5.84108 24.9374 6.30134C24.951 7.42941 24.9363 8.5688 24.9363 9.698C24.9363 10.3985 24.9498 10.649 25.2488 11.0833C25.788 11.8651 27.1935 11.8853 27.717 10.8791C27.8016 10.7177 27.8749 10.5497 27.8749 10.3184V5.51852C27.8749 4.15919 27.1496 2.65208 26.202 1.70676C25.2838 0.790765 23.7879 0.00112807 22.3902 0H5.73654C4.45279 0.00112807 2.65687 0.807673 1.86947 1.74961C1.75103 1.89175 1.65857 1.9594 1.5435 2.1083C1.42505 2.26172 1.34497 2.35988 1.2378 2.5212C1.03475 2.82578 0.897121 3.07059 0.730166 3.41804C0.453789 3.9911 0.218018 4.91165 0.218018 5.74755Z" fill="#147D89"/>
<path fill-rule="evenodd" clip-rule="evenodd" d="M18.5041 29.094H16.3495V26.9066C16.3495 26.8051 17.0996 26.1068 17.2226 25.9839C17.3489 25.8587 17.4099 25.8045 17.5475 25.6883L23.8512 19.4535C23.9076 19.4016 23.9425 19.3621 23.9978 19.3068L24.9285 18.3761C25.3436 17.961 25.7 17.4376 26.4716 17.4376C27.5286 17.4376 28.3421 18.7157 27.5682 19.7423L19.1437 28.4927C19.0534 28.6089 18.9429 28.7048 18.8391 28.8086C18.7691 28.8774 18.6022 29.094 18.5041 29.094ZM30.782 18.7991V18.9391C30.7685 19.7535 30.535 20.5692 30.0702 21.264C29.8029 21.6634 29.337 22.1654 28.994 22.506L27.4757 24.0571C27.3358 24.197 27.2545 24.3121 27.1158 24.4497C26.5923 24.9687 26.1208 25.4819 25.5974 26.0008C25.4541 26.1419 25.3673 26.2636 25.2229 26.4091L20.6914 31.0862C20.6248 31.1742 20.5842 31.2091 20.503 31.2892C20.292 31.5013 19.9875 31.9999 19.3536 31.9999H14.7814C14.1452 31.9999 13.4751 31.3309 13.4751 30.6947V26.0245C13.4751 25.8576 13.6049 25.5507 13.6771 25.4424C13.8564 25.1717 15.2575 23.7807 15.5407 23.5179C15.6242 23.4412 15.6693 23.4242 15.7539 23.3396C15.8215 23.2731 15.8655 23.2269 15.9332 23.1592L17.8261 21.2663C18.0879 21.0045 18.3337 20.7914 18.5943 20.5308C18.8526 20.2725 19.0862 20.0378 19.3445 19.7795L23.3649 15.7996C23.612 15.6022 23.6752 15.4894 23.9696 15.2954C25.4305 14.3298 27.1993 14.2474 28.6985 15.1454C29.073 15.3698 29.2546 15.5357 29.5648 15.8448C30.3511 16.6288 30.7639 17.7083 30.782 18.7991Z" fill="#147D89"/>
<path fill-rule="evenodd" clip-rule="evenodd" d="M6.03085 10.1886C6.03085 10.9681 6.66264 11.6573 7.56509 11.6573H20.5943C21.1854 11.6573 21.6942 11.2975 21.9119 10.853C22.3834 9.88966 21.719 8.71873 20.6587 8.71873H7.4026C6.99424 8.71873 6.65926 8.95334 6.44605 9.16655C6.31633 9.29853 6.23282 9.42034 6.16062 9.59971C6.10309 9.74297 6.03085 9.98897 6.03085 10.1886Z" fill="#147D89"/>
<path fill-rule="evenodd" clip-rule="evenodd" d="M6.03085 15.9677C6.03085 16.7923 6.68068 17.4703 7.49966 17.4703H16.2512C16.8435 17.4703 17.3274 17.1218 17.5688 16.6333C17.6557 16.4573 17.6805 16.2892 17.7076 16.0512C17.7505 15.6812 17.5214 15.2018 17.3376 15.0123C17.086 14.7539 16.7544 14.5305 16.3494 14.5305H7.43422C6.97961 14.5305 6.69868 14.7291 6.46291 14.9637C6.20458 15.2209 6.03085 15.6022 6.03085 15.9677Z" fill="#147D89"/>
<path fill-rule="evenodd" clip-rule="evenodd" d="M6.03085 21.7798C6.03085 22.5909 6.66149 23.2823 7.46694 23.2823H11.9082C12.7035 23.2823 13.3454 22.6111 13.3454 21.8124C13.3454 21.0036 12.6843 20.3437 11.8755 20.3437H7.49966C7.08453 20.3437 6.69649 20.549 6.47877 20.7588C6.23173 20.9957 6.03085 21.4436 6.03085 21.7798Z" fill="#147D89"/>
</svg>
