<svg width="40" height="40" viewBox="0 0 40 40" fill="none" xmlns="http://www.w3.org/2000/svg">
<path fill-rule="evenodd" clip-rule="evenodd" d="M19.9997 1.28269e-06C31.045 1.28269e-06 40 8.95502 40 20.0003C40 31.0457 31.045 40 19.9997 40C8.95428 40 0 31.0457 0 20.0003C0 8.95502 8.95428 1.28269e-06 19.9997 1.28269e-06Z" fill="#CCCCCC"/>
<path fill-rule="evenodd" clip-rule="evenodd" d="M32.3924 35.698C31.9733 35.5391 31.6048 35.3894 31.4746 35.3054C30.0455 34.3849 26.9662 32.7156 26.125 31.2501C25.8334 30.7423 25.3152 29.7417 25.2989 29.1532C25.2767 28.217 25.2435 27.0425 25.5885 26.1786C26.2729 24.4664 28.3853 21.5993 28.2818 19.889C28.2415 19.2295 27.9388 18.4775 27.8645 17.695C27.621 15.1241 28.8085 13.9998 27.3333 11.3025L27.2527 11.1561C27.0735 10.8448 26.8829 10.5603 26.6804 10.2675C24.1544 6.66856 15.8107 6.71672 13.3186 10.2675C13.1161 10.5603 12.9254 10.8448 12.7463 11.1561L12.6663 11.3025C11.1904 13.9998 12.3785 15.1241 12.1344 17.695C12.0602 18.4775 11.7574 19.2295 11.7171 19.889C11.6135 21.5993 13.7268 24.4664 14.4104 26.1786C14.7554 27.0425 14.7222 28.217 14.7001 29.1532C14.6838 29.7417 14.1656 30.7423 13.8739 31.2501C13.0328 32.7156 9.95342 34.3849 8.5244 35.3054C8.3942 35.3894 8.02572 35.5391 7.60645 35.698C11.0139 38.392 15.3186 40 19.9995 40C24.6804 40 28.985 38.392 32.3924 35.698" fill="#4B4B4B"/>
</svg>
