<svg width="24" height="24" viewBox="0 0 24 24" fill="none" xmlns="http://www.w3.org/2000/svg">
<path d="M11.9671 0.798758L8.9163 2.23138L19.5082 7.1899L22.7194 5.76442L11.9671 0.798758ZM1.76588 16.6995C1.58227 16.6115 1.50947 16.4009 1.60328 16.2289C1.69711 16.0569 1.92211 15.9887 2.10573 16.0766L3.81471 16.8946C3.99833 16.9825 4.07113 17.1932 3.97731 17.3652C3.88348 17.5372 3.65848 17.6054 3.47487 17.5175L1.76588 16.6995ZM1.74935 15.0555C1.5633 14.9722 1.48458 14.7634 1.57357 14.5891C1.66257 14.4148 1.88556 14.3411 2.07162 14.4244L5.40094 15.9183C5.587 16.0016 5.66572 16.2105 5.57672 16.3848C5.48773 16.559 5.26473 16.6328 5.07868 16.5494L1.74935 15.0555ZM8.08249 2.62299L6.02047 3.5913L16.6041 8.47905L18.6509 7.57045L8.08249 2.62299ZM16.9778 9.08877L17.0292 12.6199L18.9814 11.7998L19.0131 8.1852L16.9778 9.08877ZM19.7632 7.8523L19.7266 12.0165C19.7311 12.1543 19.648 12.2874 19.5053 12.347L16.8159 13.4768C16.7706 13.4956 16.7206 13.5064 16.6679 13.507C16.4616 13.5093 16.2924 13.3545 16.2899 13.1613L16.2306 9.08777L5.18173 3.9852L1.32612 5.79579L9.31905 9.35686C9.50599 9.43946 9.58599 9.64826 9.4978 9.82328C9.40962 9.99831 9.18662 10.0732 8.99974 9.99064L0.845766 6.35786L0.794959 18.2519L11.6058 23.0381L11.5565 11.199L10.5046 10.694C10.3209 10.6061 10.2481 10.3954 10.3419 10.2234C10.4357 10.0514 10.6607 9.98321 10.8444 10.0711L11.9318 10.5931L14.6314 9.34861C14.8166 9.26303 15.0409 9.33427 15.1324 9.50771C15.2237 9.68122 15.1477 9.89136 14.9624 9.97694L12.3035 11.2027L12.3529 23.0374L23.1876 18.169L23.2045 6.32461L19.7632 7.8523ZM23.7373 5.45324C23.8136 5.4866 23.8784 5.54414 23.9172 5.62112C23.9451 5.67632 23.9561 5.73491 23.9524 5.79187L23.9344 18.3889C23.9344 18.5195 23.8561 18.6448 23.7219 18.7048L12.1637 23.8983C12.0619 23.9513 11.9353 23.9591 11.822 23.909L0.260831 18.7907L0.26105 18.7902C0.134024 18.734 0.046353 18.6126 0.046939 18.4724L0.100968 5.82401C0.0975495 5.76758 0.108682 5.70963 0.136221 5.65489C0.176968 5.57406 0.246499 5.51458 0.327921 5.48209L4.99357 3.29107C5.00643 3.28416 5.01969 3.2779 5.03329 3.27246L7.91262 1.92032L7.91655 1.91845L11.779 0.104632C11.8836 0.0480271 12.0155 0.0398312 12.132 0.0936264L23.7373 5.45324" fill="#231F20"/>
</svg>
